<?xml version="1.0" encoding="UTF-8"?>
<!DOCTYPE svg PUBLIC "-//W3C//DTD SVG 1.1//EN" "http://www.w3.org/Graphics/SVG/1.1/DTD/svg11.dtd">
<svg version="1.1" xmlns="http://www.w3.org/2000/svg" xmlns:xlink="http://www.w3.org/1999/xlink" x="0" y="0" width="422.807" height="286.033" viewBox="0, 0, 422.807, 286.033">
  <g id="Layer_1" transform="translate(-46.838, -19.253)">
    <path d="M183.752,36.987 L283.498,34.158 L291.279,43.708 L247.065,67.052 L182.337,64.93 L183.752,36.987" fill-opacity="0" stroke="#694F9E" stroke-width="0.709" stroke-linecap="round" stroke-linejoin="round"/>
    <path d="M303.305,51.136 L320.637,84.032 L282.438,103.131 L253.078,74.127 L301.537,47.245 L303.305,51.136" fill-opacity="0" stroke="#694F9E" stroke-width="0.709" stroke-linecap="round" stroke-linejoin="round"/>
    <path d="M319.223,43.708 L360.608,30.267 L374.401,71.297 L345.397,77.664 L337.969,63.869 L325.237,66.699 L318.516,44.77 L319.223,43.708" fill-opacity="0" stroke="#694F9E" stroke-width="0.709" stroke-linecap="round" stroke-linejoin="round"/>
    <path d="M384.305,30.621 L461.414,29.206 L463.182,79.079 L411.188,77.31 L406.588,66.699 L385.721,65.992 L384.305,30.621" fill-opacity="0" stroke="#694F9E" stroke-width="0.709" stroke-linecap="round" stroke-linejoin="round"/>
    <path d="M462.121,97.472 L461.06,130.368 L401.99,131.075 L406.234,94.996 L462.121,97.472" fill-opacity="0" stroke="#694F9E" stroke-width="0.709" stroke-linecap="round" stroke-linejoin="round"/>
    <path d="M388.902,86.153 L392.086,136.38 L361.314,135.319 L347.873,105.254 L361.314,101.362 L359.191,87.568 L388.902,86.153" fill-opacity="0" stroke="#694F9E" stroke-width="0.709" stroke-linecap="round" stroke-linejoin="round"/>
    <path d="M323.113,97.118 L338.676,128.952 L326.65,138.148 L303.304,110.559 L323.113,97.118" fill-opacity="0" stroke="#694F9E" stroke-width="0.709" stroke-linecap="round" stroke-linejoin="round"/>
    <path d="M285.266,120.109 L316.746,150.174 L315.332,162.908 L288.096,167.152 L278.545,140.978 L285.266,120.109" fill-opacity="0" stroke="#694F9E" stroke-width="0.709" stroke-linecap="round" stroke-linejoin="round"/>
    <path d="M370.156,153.358 L412.601,153.004 L412.955,211.367 L363.435,179.179 L370.156,153.358" fill-opacity="0" stroke="#694F9E" stroke-width="0.709" stroke-linecap="round" stroke-linejoin="round"/>
    <path d="M426.397,155.127 L460.354,154.065 L457.523,229.406 L424.629,212.074 L426.397,155.127" fill-opacity="0" stroke="#694F9E" stroke-width="0.709" stroke-linecap="round" stroke-linejoin="round"/>
    <path d="M420.383,230.113 L452.926,248.152 L456.108,299.795 L431.703,298.732 L427.457,266.898 L404.113,268.668 L403.051,253.459 L420.383,230.113" fill-opacity="0" stroke="#694F9E" stroke-width="0.709" stroke-linecap="round" stroke-linejoin="round"/>
    <path d="M356.008,193.682 L403.051,223.393 L379.354,239.311 L352.824,236.834 L356.008,193.682" fill-opacity="0" stroke="#694F9E" stroke-width="0.709" stroke-linecap="round" stroke-linejoin="round"/>
    <path d="M357.777,252.396 L389.965,252.396 L393.148,280.693 L415.785,276.802 L415.785,299.794 L354.593,297.672 L357.777,252.396" fill-opacity="0" stroke="#694F9E" stroke-width="0.709" stroke-linecap="round" stroke-linejoin="round"/>
    <path d="M339.385,196.512 L339.03,240.371 L289.512,239.664 L290.572,199.34 L339.385,196.512" fill-opacity="0" stroke="#694F9E" stroke-width="0.709" stroke-linecap="round" stroke-linejoin="round"/>
    <path d="M271.826,255.227 L334.431,252.397 L336.908,299.795 L272.18,298.733 L271.826,255.227" fill-opacity="0" stroke="#694F9E" stroke-width="0.709" stroke-linecap="round" stroke-linejoin="round"/>
    <path d="M275.363,191.205 L276.424,237.187 L235.747,235.773 L236.1,194.389 L275.363,191.205" fill-opacity="0" stroke="#694F9E" stroke-width="0.709" stroke-linecap="round" stroke-linejoin="round"/>
    <path d="M273.947,169.275 L266.519,141.685 L278.9,111.62 L237.515,85.445 L226.904,133.904 L234.685,178.117 L273.947,170.336 L273.947,169.275" fill-opacity="0" stroke="#694F9E" stroke-width="0.709" stroke-linecap="round" stroke-linejoin="round"/>
    <path d="M223.014,197.219 L220.184,234.358 L198.608,234.004 L202.145,205 L223.014,197.219" fill-opacity="0" stroke="#694F9E" stroke-width="0.709" stroke-linecap="round" stroke-linejoin="round"/>
    <path d="M148.026,215.965 L188.703,204.647 L187.996,235.774 L149.441,239.311 L150.503,263.361 L111.948,264.778 L110.886,247.092 L138.476,242.492 L148.026,215.965" fill-opacity="0" stroke="#694F9E" stroke-width="0.709" stroke-linecap="round" stroke-linejoin="round"/>
    <path d="M171.018,249.922 L249.896,248.506 L251.311,283.524 L195.071,281.047 L197.193,298.379 L136.708,296.965 L136.001,280.34 L172.787,278.926 L171.018,249.922" fill-opacity="0" stroke="#694F9E" stroke-width="0.709" stroke-linecap="round" stroke-linejoin="round"/>
    <path d="M219.122,149.468 L223.721,174.934 L142.367,196.156 L141.307,150.529 L219.122,149.468" fill-opacity="0" stroke="#694F9E" stroke-width="0.709" stroke-linecap="round" stroke-linejoin="round"/>
    <path d="M213.109,139.917 L141.66,139.917 L139.183,118.341 L103.105,118.694 L103.459,80.848 L227.611,83.678 L214.171,120.109 L213.109,139.917" fill-opacity="0" stroke="#694F9E" stroke-width="0.709" stroke-linecap="round" stroke-linejoin="round"/>
    <path d="M96.738,247.445 L96.738,276.802 L121.852,278.218 L123.621,295.195 L53.586,295.195 L51.817,246.738 L96.738,247.445" fill-opacity="0" stroke="#694F9E" stroke-width="0.709" stroke-linecap="round" stroke-linejoin="round"/>
    <path d="M78.346,224.453 L52.171,221.625 L56.063,130.367 L117.254,128.599 L124.328,192.619 L114.071,207.476 L80.115,208.89 L78.346,224.453" fill-opacity="0" stroke="#694F9E" stroke-width="0.709" stroke-linecap="round" stroke-linejoin="round"/>
    <path d="M56.062,65.992 L95.678,66.346 L97.092,115.157 L53.939,115.157 L55.001,66.346 L56.062,65.992" fill-opacity="0" stroke="#694F9E" stroke-width="0.709" stroke-linecap="round" stroke-linejoin="round"/>
    <path d="M61.722,35.219 L168.189,34.158 L167.834,59.979 L112.656,58.564 L113.01,47.245 L63.137,50.429 L61.722,35.219" fill-opacity="0" stroke="#694F9E" stroke-width="0.709" stroke-linecap="round" stroke-linejoin="round"/>
    <path d="M47.838,27.242 L465.151,20.253 L468.645,155.031 L461.657,300.791 L456.166,304.286 L49.834,302.289 L47.838,27.242 z" fill-opacity="0" stroke="#000000" stroke-width="1"/>
  </g>
</svg>
